<?xml version="1.0" encoding="utf-8"?>
<!-- Generator: Adobe Illustrator 19.0.0, SVG Export Plug-In . SVG Version: 6.00 Build 0)  -->
<svg version="1.1" id="Layer_1" xmlns="http://www.w3.org/2000/svg" xmlns:xlink="http://www.w3.org/1999/xlink" x="0px" y="0px"
	 viewBox="-314 315.2 330.8 330.8" style="enable-background:new -314 315.2 330.8 330.8;" xml:space="preserve">
<style type="text/css">
	.st0{fill:none;}
</style>
<path id="XMLID_35_" d="M-314,315.2V646H16.8V315.2H-314z M-259.4,500.6h-20V370.4v-20h20h130.2v20h-130.2V500.6z M-17.8,499.4
	v111.4h-111.4h-19.4V480h130.8V499.4z"/>
<rect id="XMLID_1_" x="-133.2" y="495.4" class="st0" width="100" height="100"/>
<g id="XMLID_3_">
	<path id="XMLID_4_" d="M-68.2,585.4c-1.5,0-2.8-0.3-3.8-0.8c-3.6-1.8-6.1-4.4-8.6-11.9c-2.6-7.8-7.3-11.4-11.9-15
		c-3.9-3.1-8.1-6.2-11.6-12.7c-2.6-4.7-4.1-10-4.1-14.7c0-14,11-25,25-25s25,11,25,25h10c0-19.6-15.4-35-35-35s-35,15.4-35,35
		c0,6.3,1.9,13.3,5.3,19.5c4.7,8.3,9.9,12.4,14.3,15.8c4,3.1,6.9,5.4,8.5,10.3c3,9.1,6.9,14.2,13.7,17.8c2.6,1.1,5.3,1.8,8.2,1.8
		c11,0,20-9,20-20h-10C-58.2,580.9-62.7,585.4-68.2,585.4z"/>
	<circle id="XMLID_2_" cx="-83.2" cy="530.4" r="12.5"/>
</g>
</svg>
