<?xml version="1.0" encoding="utf-8"?>
<!-- Generator: Adobe Illustrator 19.0.0, SVG Export Plug-In . SVG Version: 6.00 Build 0)  -->
<svg version="1.1" id="Layer_1" xmlns="http://www.w3.org/2000/svg" xmlns:xlink="http://www.w3.org/1999/xlink" x="0px" y="0px"
	 viewBox="-140 231.2 330.8 330.8" style="enable-background:new -140 231.2 330.8 330.8;" xml:space="preserve">
<style type="text/css">
	.st0{fill:#FFFFFF;}
	.st1{fill:none;}
</style>
<path id="XMLID_35_" class="st0" d="M-140,231.2V562h330.8V231.2H-140z M-85.4,416.6h-20V286.4v-20h20H44.8v20H-85.4V416.6z
	 M156.2,415.4v111.4H44.8H25.4V396h130.8V415.4z"/>
<rect id="XMLID_1_" x="40.8" y="411.4" class="st1" width="100" height="100"/>
<g id="XMLID_3_">
	<path id="XMLID_4_" class="st0" d="M105.8,501.4c-1.5,0-2.8-0.3-3.8-0.8c-3.6-1.8-6.1-4.4-8.6-11.9c-2.6-7.8-7.3-11.4-11.9-15
		c-3.9-3.1-8.1-6.2-11.6-12.7c-2.6-4.7-4.1-10-4.1-14.7c0-14,11-25,25-25s25,11,25,25h10c0-19.6-15.4-35-35-35s-35,15.4-35,35
		c0,6.3,1.9,13.3,5.3,19.5c4.7,8.3,9.9,12.4,14.3,15.8c4,3.1,6.9,5.4,8.5,10.3c3,9.1,6.9,14.2,13.7,17.8c2.6,1.1,5.3,1.8,8.2,1.8
		c11,0,20-9,20-20h-10C115.8,496.9,111.3,501.4,105.8,501.4z"/>
	<circle id="XMLID_2_" class="st0" cx="90.8" cy="446.4" r="12.5"/>
</g>
</svg>
